<?xml version="1.0" encoding="UTF-8"?>
<svg id="_レイヤー_2" data-name="レイヤー 2" xmlns="http://www.w3.org/2000/svg" viewBox="0 0 1152.37 152.97">
  <defs>
    <style>
      .cls-1 {
        fill: none;
        stroke: #fff;
        stroke-miterlimit: 10;
        stroke-width: .5px;
      }
    </style>
  </defs>
  <g id="layer">
    <path class="cls-1" d="M1152.15,112.95c-7.18-14.19-16.29-26.8-26.52-26.52-22.17.61-31.41,61.38-44.19,60.4-19.38-1.48-20.21-142.85-34.62-143.63-12.81-.69-26.65,110.35-46.4,109.75-11.1-.34-15.33-35.66-30.2-36.09-14.4-.42-23.51,32.36-33.88,30.2-8.91-1.85-8.16-27.28-14.73-27.99-8.5-.92-16.3,41.02-22.83,40.51-10.87-.85-6.99-118.56-15.47-119.32-9.73-.87-27.53,153.24-41.25,152.47-11.9-.67-12.24-117.29-25.04-117.85-11.33-.49-24.09,90.2-34.62,89.12-6.51-.67-8.5-36.12-15.47-36.09-5,.02-10.89,18.33-19.15,20.62-.62.17-1.09.02-1.47,0-11.06-.68-19.84-19.33-23.24-27.42-6.79-16.12-31.02,1.79-90.88,4.05-17.1.65-27.6-.03-38.74-2.39-20.94-4.42-20.35-9.73-33.96-11-26.06-2.44-35.24,16.33-57.32,11-13.06-3.15-10.94-9.98-23.99-13.87-25.21-7.52-37.01,16.8-65.22,13.87-15.23-1.58-13.42-8.83-50.53-25.35-20.89-9.3-31.34-13.95-39.22-13.39-32.72,2.31-40.67,46.99-65.74,46.47-22.77-.47-25.91-37.54-52.88-42.64-25.16-4.76-41.35,23.9-73.93,42.64C105.01,105.26,64.71,116.45.05,101.91"/>
  </g>
</svg>