<?xml version="1.0" encoding="UTF-8"?>
<svg id="_レイヤー_2" data-name="レイヤー 2" xmlns="http://www.w3.org/2000/svg" viewBox="0 0 342.16 251.62">
  <defs>
    <style>
      .cls-1 {
        fill: none;
        stroke: #000;
        stroke-linecap: square;
        stroke-miterlimit: 10;
        stroke-width: .37px;
      }
    </style>
  </defs>
  <g id="layer">
    <polygon class="cls-1" points="322.69 204.18 318.37 207.57 313.84 210.63 309.17 213.48 304.48 216.32 299.6 218.81 294.86 221.52 290.2 224.43 285.34 226.95 280.5 229.51 275.52 231.8 270.38 233.71 265.37 235.92 260.1 237.48 254.94 239.28 249.94 241.58 244.62 242.93 239.26 244.04 234.1 245.97 228.7 246.91 223.32 247.96 217.97 249.14 212.48 249.4 207.11 250.59 201.6 250.48 196.15 250.89 190.7 251.43 185.23 251.24 179.76 251.21 174.3 250.87 168.86 250.64 163.4 250.47 157.99 249.78 152.6 248.93 147.14 248.6 141.75 247.72 136.36 246.86 131.04 245.62 125.74 244.31 120.5 242.79 115.15 241.69 109.87 240.34 104.57 239.03 99.41 237.24 94.15 235.75 89.12 233.58 83.84 232.15 78.87 229.87 73.75 227.98 68.77 225.74 63.64 223.87 58.55 221.89 53.66 219.46 48.66 217.28 43.7 214.99 38.87 212.45 34.13 209.74 29.05 207.68 24.48 204.65 19.54 202.33 14.98 199.4 10.95 195.76 7.57 191.52 4.93 186.79 3.15 181.69 1.54 176.55 .84 171.2 .34 165.83 .32 160.44 .19 155.01 .66 149.61 2.17 144.37 3.22 139.12 4.33 133.86 5.86 128.72 7.37 123.56 9.36 118.58 10.87 113.4 13.44 108.66 15.41 103.66 18.17 99.04 20.52 94.21 23.26 89.59 26.4 85.23 29.24 80.66 32.46 76.36 36.17 72.25 39.84 68.11 44 64.46 48.22 60.88 52.74 57.7 57.5 54.87 62.44 52.41 67.5 50.2 72.77 48.52 77.99 46.69 83.33 45.26 88.81 44.44 94.23 43.32 99.77 43.02 105.28 42.54 110.31 41.43 115.37 40.66 120.43 39.75 125.4 38.46 130.33 37.02 135.13 35.21 140.03 33.65 144.84 31.84 149.59 29.89 154.27 27.77 159 25.22 163.95 23.17 168.97 21.29 173.67 18.66 178.65 16.68 183.59 14.6 188.56 12.6 193.48 10.46 198.56 8.75 203.75 7.36 208.86 5.78 214 4.29 219.08 2.51 224.44 1.96 229.72 1.15 235.02 .29 240.38 .29 245.73 .19 251.09 .37 256.35 1.45 261.62 2.48 266.93 3.59 271.74 6.11 276.67 8.33 281.16 11.34 285.43 14.64 289.59 18.08 293.61 21.7 297.2 25.74 300.66 29.87 303.89 34.19 307.07 38.54 310.31 42.88 313.05 47.53 315.67 52.25 318.04 57.1 320.89 61.71 322.73 66.81 325.22 71.61 326.81 76.79 329.2 81.66 330.92 86.78 332.39 91.98 333.96 97.15 335.03 102.45 336.51 107.65 337.55 112.94 338.93 118.18 339.66 123.53 340.62 128.85 340.71 134.28 341.54 139.63 341.93 145.02 341.97 150.42 341.66 155.82 341.67 161.23 341.01 166.6 340.42 171.98 339.15 177.24 337.82 182.49 335.94 187.56 333.65 192.48 330.54 196.92 327.04 201.03 322.69 204.18"/>
  </g>
</svg>