<?xml version="1.0" encoding="UTF-8"?>
<svg id="_レイヤー_2" data-name="レイヤー 2" xmlns="http://www.w3.org/2000/svg" viewBox="0 0 292.43 215.84">
  <defs>
    <style>
      .cls-1 {
        fill: none;
        stroke: #000;
        stroke-miterlimit: 10;
        stroke-width: .35px;
      }
    </style>
  </defs>
  <g id="layer">
    <polygon class="cls-1" points="16.29 41.21 19.92 38.44 23.34 35.41 27.19 32.96 31.07 30.56 34.91 28.1 39.5 25.84 44.04 23.49 48.46 20.92 53.08 18.71 57.78 16.7 62.61 15.01 67.19 12.7 72.11 11.27 76.9 9.49 81.71 7.77 86.68 6.54 91.55 4.96 96.61 4.17 101.56 2.85 106.61 2.05 111.67 1.3 116.8 1.21 121.87 .56 127.05 .42 132.23 .18 137.41 .26 142.6 .32 147.75 1.08 152.93 1.22 158.05 2.1 163.23 2.44 168.31 3.5 173.41 4.41 178.49 5.37 183.62 6.18 188.67 7.37 193.66 8.76 198.64 10.22 203.57 11.82 208.49 13.42 213.52 14.66 218.49 16.1 223.43 17.64 228.32 19.31 233.19 21.06 238.07 22.77 242.84 24.79 247.77 26.4 252.4 28.71 257.17 30.71 261.74 33.15 266.07 35.97 270.68 38.39 274.53 41.87 278.72 44.93 282.01 48.94 285.25 52.94 287.78 57.42 290.05 62.05 291.38 67.21 292.25 72.46 292.2 77.79 292.07 83.12 291.56 88.44 290.15 93.6 288.87 98.77 287.92 104.05 285.98 109.04 284.36 113.96 282.38 118.75 280.12 123.42 278.09 128.19 275.99 132.94 273.32 137.39 270.46 141.71 267.54 145.99 264.68 150.32 261.3 154.25 258.09 158.34 254.26 161.85 250.16 165.03 246.11 168.23 241.89 171.25 237.38 173.82 232.54 175.69 227.64 177.28 222.66 178.68 217.5 179.08 212.41 180.06 207.24 180.14 202.1 180.7 196.94 181.04 191.84 181.82 186.77 182.81 182.08 184.09 177.5 185.73 172.89 187.27 168.43 189.2 163.95 191.07 159.41 192.84 155.06 195.01 150.77 197.32 146.27 199.16 141.92 201.32 137.1 203.1 132.39 205.09 127.53 206.73 122.84 208.81 117.96 210.37 112.98 211.58 108.06 213 103.1 214.27 98.03 215.03 92.93 215.62 87.81 215.66 82.7 215.55 77.6 215.17 72.57 214.25 67.55 213.22 62.9 211.19 58.33 209.06 53.97 206.52 49.9 203.52 45.8 200.53 42.46 196.7 39.04 192.98 35.61 189.25 32.62 185.16 29.74 180.99 26.73 176.89 24.32 172.42 21.71 168.08 19.37 163.41 17.36 158.59 15.04 153.92 13.39 148.96 11.57 144.09 9.42 139.32 8.18 134.24 6.47 129.31 5.48 124.19 4.07 119.17 3.07 114.05 2.12 108.92 1.7 103.72 .96 98.56 .83 93.35 .66 88.15 .18 82.82 .79 77.51 .71 72.15 1.51 66.86 3.03 61.73 4.98 56.78 7.2 51.94 9.95 48.13 13.06 44.62 16.29 41.21"/>
  </g>
</svg>