<?xml version="1.0" encoding="UTF-8"?>
<svg id="_レイヤー_2" data-name="レイヤー 2" xmlns="http://www.w3.org/2000/svg" viewBox="0 0 304.66 225.02">
  <defs>
    <style>
      .cls-1 {
        fill: #47b2b2;
      }
    </style>
  </defs>
  <g id="layer">
    <path class="cls-1" d="M16.69,42.65c1.17-1.07,2.41-2.08,3.64-3.07s2.42-2.08,3.71-3,2.61-1.83,3.93-2.7,2.83-1.49,4.18-2.3,2.71-1.7,4.07-2.46c1.55-.87,3.24-1.47,4.81-2.31s3.04-1.84,4.62-2.65,3.3-1.33,4.9-2.11,3.15-1.64,4.76-2.38,3.24-1.45,4.87-2.16,3.17-1.62,4.81-2.3,3.25-1.45,4.91-2.09,3.41-1.03,5.08-1.63,3.29-1.37,4.97-1.93,3.48-.78,5.18-1.3,3.34-1.24,5.05-1.71,3.51-.6,5.24-1.02,3.38-1.12,5.12-1.49,3.43-1,5.17-1.32,3.58-.14,5.33-.41,3.49-.62,5.26-.84,3.5-.66,5.27-.82,3.56.06,5.34-.04c1.8-.1,3.58-.54,5.38-.59s3.61.16,5.41.15,3.6-.1,5.4-.05,3.59.45,5.39.54,3.62-.21,5.42-.08,3.6.25,5.39.42,3.58.47,5.36.68,3.59.35,5.37.6,3.5.93,5.28,1.23,3.57.45,5.35.78,3.53.7,5.3,1.06,3.61.38,5.36.78,3.42,1.18,5.17,1.62,3.51.8,5.25,1.26,3.44,1.08,5.17,1.57,3.49.89,5.22,1.41,3.41,1.17,5.12,1.72c1.64.53,3.4.97,5.17,1.52,1.67.52,3.3,1.31,5.07,1.86s3.53.63,5.28,1.18,3.27,1.5,5,2.06,3.46.92,5.18,1.5,3.49.87,5.19,1.49,3.3,1.42,4.99,2.07,3.22,1.62,4.88,2.31,3.39,1.21,5.03,1.95,3.22,1.61,4.83,2.4,3.14,1.75,4.71,2.61,3.23,1.6,4.75,2.53,3.13,1.81,4.59,2.82,2.76,2.33,4.15,3.44,3.13,1.91,4.42,3.13,2.24,2.87,3.41,4.21,2.37,2.71,3.38,4.18,1.83,3.08,2.66,4.67,1.59,3.19,2.2,4.89c.62,1.74,1.5,3.43,1.87,5.26s.11,3.72.26,5.58.39,3.67.36,5.54.09,3.71-.09,5.57-.35,3.7-.65,5.54-.89,3.62-1.29,5.42-.77,3.65-1.25,5.43-1.29,3.52-1.83,5.26-.67,3.73-1.25,5.44c-.58,1.68-1.23,3.37-1.87,5.08s-1.59,3.23-2.28,4.91-1.15,3.41-1.9,5.07-1.83,3.11-2.63,4.73-1.36,3.34-2.21,4.94-1.61,3.23-2.52,4.79-2.19,2.89-3.15,4.41-1.59,3.27-2.61,4.75-2.53,2.62-3.62,4.04-1.92,3.08-3.08,4.45-2.32,2.77-3.56,4.08-2.56,2.56-3.87,3.78-2.93,2.12-4.32,3.26-2.66,2.45-4.12,3.49-2.88,2.19-4.43,3.11-3.18,1.72-4.79,2.52-3.37,1.25-5.06,1.91c-1.69.66-3.27,1.58-4.99,2.05s-3.51.85-5.27,1.18-3.56.47-5.35.7-3.56.48-5.35.64-3.6-.06-5.4.07-3.54.79-5.33.94-3.61-.08-5.4.11-3.52.71-5.29,1-3.5.68-5.25,1.11c-1.64.4-3.3.69-4.92,1.17s-3.17,1.14-4.77,1.69-3.22,1-4.8,1.61-3.08,1.37-4.65,2.02-3.11,1.3-4.66,1.98-3.07,1.4-4.61,2.1-3.2,1.13-4.73,1.85-3.1,1.36-4.63,2.07-2.98,1.61-4.51,2.31-3.21,1.1-4.75,1.78c-1.61.71-3.03,1.91-4.69,2.61s-3.36,1.17-5.02,1.84-3.24,1.47-4.92,2.1-3.4,1.07-5.08,1.66-3.47.83-5.17,1.37-3.28,1.44-5,1.92-3.51.63-5.25,1.04-3.4,1.16-5.14,1.49-3.56.32-5.32.56-3.51.68-5.28.82-3.56.29-5.34.32-3.58.01-5.35-.08-3.5-.74-5.27-.97-3.54-.3-5.29-.67-3.39-1.02-5.1-1.54-3.43-.84-5.05-1.52-3.1-1.66-4.65-2.5-3.14-1.57-4.62-2.54-3.12-1.7-4.51-2.78-2.68-2.3-3.99-3.49-2.49-2.5-3.72-3.76-2.23-2.72-3.39-4.05-2.58-2.44-3.67-3.82-1.86-3.02-2.88-4.45-2.01-2.89-2.98-4.36-2.29-2.74-3.2-4.23-1.65-3.14-2.51-4.66-1.79-3.06-2.61-4.6c-.85-1.6-1.77-3.16-2.58-4.79s-1.09-3.49-1.86-5.13-1.85-3.14-2.57-4.8-1.54-3.29-2.21-4.97-1.17-3.44-1.79-5.14-.93-3.51-1.5-5.23-1.18-3.42-1.71-5.15-1.14-3.44-1.62-5.18-1.11-3.46-1.54-5.22-.53-3.59-.91-5.37-.65-3.56-.98-5.34-.71-3.55-.99-5.34-.59-3.57-.81-5.37-.69-3.57-.85-5.37.02-3.64-.09-5.44-.02-3.62-.07-5.43c-.04-1.81-.56-3.66-.54-5.55s.46-3.68.57-5.54.04-3.71.25-5.55.28-3.72.63-5.54.78-3.66,1.29-5.43,1.44-3.45,2.16-5.14,1.31-3.52,2.28-5.09c.85-1.39,1.77-2.77,2.78-4.07s2.4-2.24,3.53-3.44,2-2.61,3.21-3.72Z"/>
  </g>
</svg>